<?xml version="1.0" encoding="utf-8"?>
<!-- Generator: Adobe Illustrator 24.3.0, SVG Export Plug-In . SVG Version: 6.00 Build 0)  -->
<svg version="1.1" id="Layer_1" xmlns="http://www.w3.org/2000/svg" xmlns:xlink="http://www.w3.org/1999/xlink" x="0px" y="0px"
	 viewBox="0 0 16 16" style="enable-background:new 0 0 16 16;" xml:space="preserve">
<style type="text/css">
	.st0{fill:#0077B5;}
	.st1{fill:#FFFFFF;}
</style>
<rect class="st0" width="16" height="16"/>
<path class="st1" d="M13.47,2.42H2.53c-0.44,0-0.8,0.41-0.8,0.91v9.34c0,0.5,0.36,0.91,0.8,0.91h10.94c0.44,0,0.8-0.41,0.8-0.91
	V3.33C14.27,2.83,13.91,2.42,13.47,2.42z M13.47,3.33v6.63L11.9,8.32c-0.24-0.25-0.6-0.24-0.82,0.02l-1.59,1.82L6.36,5.88
	C6.13,5.56,5.69,5.56,5.45,5.88L2.53,9.77V3.33H13.47z M10.09,5.72c0-0.69,0.49-1.25,1.09-1.25c0.6,0,1.09,0.56,1.09,1.25
	c0,0.69-0.49,1.25-1.09,1.25C10.58,6.97,10.09,6.41,10.09,5.72z"/>
</svg>
